<svg width="76" height="73" fill="none" xmlns="http://www.w3.org/2000/svg"><path fill-rule="evenodd" clip-rule="evenodd" d="M38 .38.44 37.94l2.12 2.12L10 32.62V70H6v3h65v-3h-5V32.62l7.44 7.44 2.12-2.12L66 28.38V1H52v13.38l-14-14Zm17 17 8 8V4h-8v13.38Zm8 12.24-25-25-25 25V70h50V29.62ZM30 42v24h16V42H30Zm3 21V45h10v18H33ZM17 42h3v4h-3v-4Zm9 0h-3v4h3v-4Zm-9 6h3v4h-3v-4Zm9 0h-3v4h3v-4Zm24-6h3v4h-3v-4Zm9 0h-3v4h3v-4Zm-9 6h3v4h-3v-4Zm9 0h-3v4h3v-4ZM33 28a5 5 0 1 1 10 0 5 5 0 0 1-10 0Zm5-8a8 8 0 1 0 0 16 8 8 0 0 0 0-16Z" fill="#000"/></svg>